<mxfile host="Electron" agent="Mozilla/5.0 (Windows NT 10.0; Win64; x64) AppleWebKit/537.36 (KHTML, like Gecko) draw.io/24.7.8 Chrome/128.0.6613.36 Electron/32.0.1 Safari/537.36" version="24.7.8">
  <diagram id="cwIRp_KXKwPp0aOuLG4Q" name="Страница — 1">
    <mxGraphModel dx="1793" dy="5736" grid="1" gridSize="10" guides="1" tooltips="1" connect="1" arrows="1" fold="1" page="1" pageScale="1" pageWidth="3300" pageHeight="4681" math="0" shadow="0">
      <root>
        <mxCell id="0" />
        <mxCell id="1" parent="0" />
        <mxCell id="tZ8Ya-4mFZi0hfj2rR8u-3" value="" style="rounded=1;whiteSpace=wrap;html=1;dashed=1;" parent="1" vertex="1">
          <mxGeometry x="360" y="805" width="600" height="505" as="geometry" />
        </mxCell>
        <mxCell id="YRH8JHqfD0DxMbFeHIv--7" value="" style="rounded=0;whiteSpace=wrap;html=1;dashed=1;strokeWidth=1;perimeterSpacing=0;" parent="1" vertex="1">
          <mxGeometry x="400" y="830" width="520" height="260" as="geometry" />
        </mxCell>
        <mxCell id="tZ8Ya-4mFZi0hfj2rR8u-40" style="edgeStyle=orthogonalEdgeStyle;rounded=0;orthogonalLoop=1;jettySize=auto;html=1;entryX=1;entryY=0.5;entryDx=0;entryDy=0;" parent="1" source="tZ8Ya-4mFZi0hfj2rR8u-1" target="tZ8Ya-4mFZi0hfj2rR8u-3" edge="1">
          <mxGeometry relative="1" as="geometry">
            <Array as="points">
              <mxPoint x="1200" y="580" />
              <mxPoint x="1200" y="1058" />
            </Array>
          </mxGeometry>
        </mxCell>
        <mxCell id="tZ8Ya-4mFZi0hfj2rR8u-1" value="" style="rounded=1;whiteSpace=wrap;html=1;dashed=1;" parent="1" vertex="1">
          <mxGeometry x="155" y="400" width="1010" height="360" as="geometry" />
        </mxCell>
        <mxCell id="tZ8Ya-4mFZi0hfj2rR8u-41" style="edgeStyle=orthogonalEdgeStyle;rounded=0;orthogonalLoop=1;jettySize=auto;html=1;entryX=0;entryY=0.5;entryDx=0;entryDy=0;" parent="1" source="tZ8Ya-4mFZi0hfj2rR8u-2" target="tZ8Ya-4mFZi0hfj2rR8u-3" edge="1">
          <mxGeometry relative="1" as="geometry">
            <Array as="points">
              <mxPoint x="120" y="185" />
              <mxPoint x="120" y="945" />
            </Array>
          </mxGeometry>
        </mxCell>
        <mxCell id="tZ8Ya-4mFZi0hfj2rR8u-2" value="" style="rounded=1;whiteSpace=wrap;html=1;dashed=1;" parent="1" vertex="1">
          <mxGeometry x="150" y="-130" width="1110" height="460" as="geometry" />
        </mxCell>
        <mxCell id="NZPwfSG9De3y8GBdhfHq-1" style="edgeStyle=orthogonalEdgeStyle;rounded=0;orthogonalLoop=1;jettySize=auto;html=1;exitX=0.5;exitY=1;exitDx=0;exitDy=0;entryX=0.5;entryY=0;entryDx=0;entryDy=0;" parent="1" source="tZ8Ya-4mFZi0hfj2rR8u-4" target="cGKRp5_Mn36SzZ9TuBNz-1" edge="1">
          <mxGeometry relative="1" as="geometry" />
        </mxCell>
        <mxCell id="tZ8Ya-4mFZi0hfj2rR8u-4" value="&lt;div&gt;&lt;span style=&quot;white-space-collapse: preserve;&quot; data-src-align=&quot;0:6&quot; class=&quot;EzKURWReUAB5oZgtQNkl&quot;&gt;Tasks&lt;/span&gt;&lt;/div&gt;&lt;div&gt;View&lt;br&gt;Model&lt;/div&gt;" style="rounded=0;whiteSpace=wrap;html=1;" parent="1" vertex="1">
          <mxGeometry x="430" y="840" width="50" height="60" as="geometry" />
        </mxCell>
        <mxCell id="tZ8Ya-4mFZi0hfj2rR8u-5" value="&lt;font style=&quot;vertical-align: inherit;&quot;&gt;&lt;font style=&quot;vertical-align: inherit;&quot;&gt;Аpp&lt;br&gt;&lt;/font&gt;&lt;/font&gt;" style="text;html=1;strokeColor=none;fillColor=none;align=center;verticalAlign=middle;whiteSpace=wrap;rounded=0;fontStyle=1;fontSize=13;" parent="1" vertex="1">
          <mxGeometry x="370" y="1087.5" width="60" height="40" as="geometry" />
        </mxCell>
        <mxCell id="tZ8Ya-4mFZi0hfj2rR8u-8" value="domain" style="text;html=1;strokeColor=none;fillColor=none;align=center;verticalAlign=middle;whiteSpace=wrap;rounded=0;fontStyle=1;fontSize=13;" parent="1" vertex="1">
          <mxGeometry x="170" y="430" width="80" height="30" as="geometry" />
        </mxCell>
        <mxCell id="tZ8Ya-4mFZi0hfj2rR8u-9" value="data" style="text;html=1;strokeColor=none;fillColor=none;align=center;verticalAlign=middle;whiteSpace=wrap;rounded=0;fontStyle=1;fontSize=13;" parent="1" vertex="1">
          <mxGeometry x="160" y="-100" width="60" height="30" as="geometry" />
        </mxCell>
        <mxCell id="tZ8Ya-4mFZi0hfj2rR8u-10" value="&lt;span style=&quot;white-space-collapse: preserve;&quot; data-src-align=&quot;0:8&quot; class=&quot;EzKURWReUAB5oZgtQNkl&quot;&gt;upload&lt;/span&gt;&lt;div&gt;&lt;span style=&quot;white-space-collapse: preserve;&quot; data-src-align=&quot;12:8&quot; class=&quot;EzKURWReUAB5oZgtQNkl&quot;&gt;tasksUseCase&lt;/span&gt;&lt;/div&gt;" style="ellipse;whiteSpace=wrap;html=1;" parent="1" vertex="1">
          <mxGeometry x="180" y="670" width="120" height="80" as="geometry" />
        </mxCell>
        <mxCell id="tZ8Ya-4mFZi0hfj2rR8u-11" value="&lt;span style=&quot;white-space-collapse: preserve;&quot; data-src-align=&quot;31:4&quot; class=&quot;EzKURWReUAB5oZgtQNkl&quot;&gt;&lt;span data-src-align=&quot;0:6&quot; class=&quot;EzKURWReUAB5oZgtQNkl&quot;&gt;&lt;span data-src-align=&quot;0:7&quot; class=&quot;EzKURWReUAB5oZgtQNkl&quot;&gt;download&lt;/span&gt; tasks&lt;/span&gt;UseCase&lt;/span&gt;" style="ellipse;whiteSpace=wrap;html=1;" parent="1" vertex="1">
          <mxGeometry x="320" y="670" width="120" height="80" as="geometry" />
        </mxCell>
        <mxCell id="tZ8Ya-4mFZi0hfj2rR8u-17" value="" style="endArrow=classic;html=1;rounded=0;exitX=0.5;exitY=1;exitDx=0;exitDy=0;entryX=0;entryY=0.75;entryDx=0;entryDy=0;" parent="1" source="tZ8Ya-4mFZi0hfj2rR8u-10" target="tZ8Ya-4mFZi0hfj2rR8u-4" edge="1">
          <mxGeometry width="50" height="50" relative="1" as="geometry">
            <mxPoint x="700" y="750" as="sourcePoint" />
            <mxPoint x="750" y="700" as="targetPoint" />
          </mxGeometry>
        </mxCell>
        <mxCell id="tZ8Ya-4mFZi0hfj2rR8u-18" value="" style="endArrow=classic;html=1;rounded=0;exitX=0.5;exitY=1;exitDx=0;exitDy=0;entryX=0;entryY=0.5;entryDx=0;entryDy=0;" parent="1" source="tZ8Ya-4mFZi0hfj2rR8u-11" target="tZ8Ya-4mFZi0hfj2rR8u-4" edge="1">
          <mxGeometry width="50" height="50" relative="1" as="geometry">
            <mxPoint x="700" y="750" as="sourcePoint" />
            <mxPoint x="750" y="700" as="targetPoint" />
          </mxGeometry>
        </mxCell>
        <mxCell id="tZ8Ya-4mFZi0hfj2rR8u-26" style="edgeStyle=orthogonalEdgeStyle;rounded=0;orthogonalLoop=1;jettySize=auto;html=1;" parent="1" source="tZ8Ya-4mFZi0hfj2rR8u-24" target="tZ8Ya-4mFZi0hfj2rR8u-10" edge="1">
          <mxGeometry relative="1" as="geometry" />
        </mxCell>
        <mxCell id="tZ8Ya-4mFZi0hfj2rR8u-27" style="edgeStyle=orthogonalEdgeStyle;rounded=0;orthogonalLoop=1;jettySize=auto;html=1;" parent="1" source="tZ8Ya-4mFZi0hfj2rR8u-24" target="tZ8Ya-4mFZi0hfj2rR8u-11" edge="1">
          <mxGeometry relative="1" as="geometry" />
        </mxCell>
        <mxCell id="eqSFq4JWVnyqT5bBwnX6-21" style="edgeStyle=orthogonalEdgeStyle;rounded=0;orthogonalLoop=1;jettySize=auto;html=1;exitX=1;exitY=0.5;exitDx=0;exitDy=0;entryX=0.5;entryY=0;entryDx=0;entryDy=0;" parent="1" source="tZ8Ya-4mFZi0hfj2rR8u-24" target="eqSFq4JWVnyqT5bBwnX6-19" edge="1">
          <mxGeometry relative="1" as="geometry" />
        </mxCell>
        <mxCell id="tZ8Ya-4mFZi0hfj2rR8u-24" value="TaskRepository" style="rounded=1;whiteSpace=wrap;html=1;" parent="1" vertex="1">
          <mxGeometry x="230" y="550" width="150" height="60" as="geometry" />
        </mxCell>
        <mxCell id="tZ8Ya-4mFZi0hfj2rR8u-28" value="model" style="rounded=1;whiteSpace=wrap;html=1;" parent="1" vertex="1">
          <mxGeometry x="1000" y="415" width="120" height="60" as="geometry" />
        </mxCell>
        <mxCell id="tZ8Ya-4mFZi0hfj2rR8u-30" value="" style="rounded=1;whiteSpace=wrap;html=1;dashed=1;" parent="1" vertex="1">
          <mxGeometry x="810" y="-110" width="360" height="230" as="geometry" />
        </mxCell>
        <mxCell id="tZ8Ya-4mFZi0hfj2rR8u-32" value="storage" style="text;html=1;strokeColor=none;fillColor=none;align=center;verticalAlign=middle;whiteSpace=wrap;rounded=0;fontStyle=1;fontSize=13;" parent="1" vertex="1">
          <mxGeometry x="820" y="-110" width="60" height="30" as="geometry" />
        </mxCell>
        <mxCell id="tZ8Ya-4mFZi0hfj2rR8u-33" value="UserStorage - interface" style="rounded=1;whiteSpace=wrap;html=1;" parent="1" vertex="1">
          <mxGeometry x="840" y="20" width="165" height="60" as="geometry" />
        </mxCell>
        <mxCell id="tZ8Ya-4mFZi0hfj2rR8u-35" value="UserModel" style="rounded=1;whiteSpace=wrap;html=1;" parent="1" vertex="1">
          <mxGeometry x="1030" y="-80" width="120" height="60" as="geometry" />
        </mxCell>
        <mxCell id="tZ8Ya-4mFZi0hfj2rR8u-36" value="UserStorage -impl" style="rounded=1;whiteSpace=wrap;html=1;" parent="1" vertex="1">
          <mxGeometry x="835" y="-80" width="165" height="60" as="geometry" />
        </mxCell>
        <mxCell id="tZ8Ya-4mFZi0hfj2rR8u-39" style="edgeStyle=orthogonalEdgeStyle;rounded=0;orthogonalLoop=1;jettySize=auto;html=1;exitX=1;exitY=0.25;exitDx=0;exitDy=0;entryX=1;entryY=0.345;entryDx=0;entryDy=0;entryPerimeter=0;" parent="1" source="tZ8Ya-4mFZi0hfj2rR8u-1" target="tZ8Ya-4mFZi0hfj2rR8u-2" edge="1">
          <mxGeometry relative="1" as="geometry">
            <Array as="points">
              <mxPoint x="1300" y="490" />
              <mxPoint x="1300" y="29" />
            </Array>
          </mxGeometry>
        </mxCell>
        <mxCell id="cGKRp5_Mn36SzZ9TuBNz-1" value="&lt;div&gt;&lt;span style=&quot;white-space-collapse: preserve; background-color: initial;&quot;&gt;Tasks&lt;/span&gt;&lt;/div&gt;&lt;div&gt;Screen&lt;/div&gt;" style="rounded=0;whiteSpace=wrap;html=1;" parent="1" vertex="1">
          <mxGeometry x="420" y="930" width="70" height="100" as="geometry" />
        </mxCell>
        <mxCell id="YRH8JHqfD0DxMbFeHIv--2" value="" style="rounded=0;whiteSpace=wrap;html=1;dashed=1;" parent="1" vertex="1">
          <mxGeometry x="380" y="1127.5" width="180" height="132.5" as="geometry" />
        </mxCell>
        <mxCell id="YRH8JHqfD0DxMbFeHIv--3" value="&lt;font style=&quot;vertical-align: inherit;&quot;&gt;&lt;font style=&quot;vertical-align: inherit;&quot;&gt;АppModule&lt;/font&gt;&lt;/font&gt;" style="rounded=0;whiteSpace=wrap;html=1;" parent="1" vertex="1">
          <mxGeometry x="390" y="1140" width="85" height="30" as="geometry" />
        </mxCell>
        <mxCell id="YRH8JHqfD0DxMbFeHIv--4" value="&lt;font style=&quot;vertical-align: inherit;&quot;&gt;&lt;font style=&quot;vertical-align: inherit;&quot;&gt;&lt;font style=&quot;vertical-align: inherit;&quot;&gt;&lt;font style=&quot;vertical-align: inherit;&quot;&gt;DomainModule&lt;/font&gt;&lt;/font&gt;&lt;/font&gt;&lt;/font&gt;" style="rounded=0;whiteSpace=wrap;html=1;" parent="1" vertex="1">
          <mxGeometry x="390" y="1180" width="85" height="30" as="geometry" />
        </mxCell>
        <mxCell id="YRH8JHqfD0DxMbFeHIv--5" value="&lt;font style=&quot;vertical-align: inherit;&quot;&gt;&lt;font style=&quot;vertical-align: inherit;&quot;&gt;&lt;font style=&quot;vertical-align: inherit;&quot;&gt;&lt;font style=&quot;vertical-align: inherit;&quot;&gt;DataModule&lt;/font&gt;&lt;/font&gt;&lt;/font&gt;&lt;/font&gt;" style="rounded=0;whiteSpace=wrap;html=1;" parent="1" vertex="1">
          <mxGeometry x="390" y="1220" width="85" height="30" as="geometry" />
        </mxCell>
        <mxCell id="YRH8JHqfD0DxMbFeHIv--6" value="&lt;b&gt;&lt;font style=&quot;vertical-align: inherit;&quot;&gt;&lt;font style=&quot;vertical-align: inherit;&quot;&gt;DI&lt;/font&gt;&lt;/font&gt;&lt;/b&gt;" style="text;html=1;strokeColor=none;fillColor=none;align=center;verticalAlign=middle;whiteSpace=wrap;rounded=0;" parent="1" vertex="1">
          <mxGeometry x="492.5" y="1210" width="57.5" height="30" as="geometry" />
        </mxCell>
        <mxCell id="YRH8JHqfD0DxMbFeHIv--8" value="&lt;font style=&quot;vertical-align: inherit;&quot;&gt;&lt;font style=&quot;vertical-align: inherit;&quot;&gt;presentation&lt;br&gt;&lt;/font&gt;&lt;/font&gt;" style="text;html=1;strokeColor=none;fillColor=none;align=center;verticalAlign=middle;whiteSpace=wrap;rounded=0;fontStyle=1;fontSize=13;" parent="1" vertex="1">
          <mxGeometry x="410" y="1040" width="90" height="40" as="geometry" />
        </mxCell>
        <mxCell id="NZPwfSG9De3y8GBdhfHq-2" style="edgeStyle=orthogonalEdgeStyle;rounded=0;orthogonalLoop=1;jettySize=auto;html=1;exitX=1;exitY=1;exitDx=0;exitDy=0;entryX=1.006;entryY=0.903;entryDx=0;entryDy=0;entryPerimeter=0;" parent="1" source="YRH8JHqfD0DxMbFeHIv--2" target="YRH8JHqfD0DxMbFeHIv--2" edge="1">
          <mxGeometry relative="1" as="geometry" />
        </mxCell>
        <mxCell id="eqSFq4JWVnyqT5bBwnX6-9" style="edgeStyle=orthogonalEdgeStyle;rounded=0;orthogonalLoop=1;jettySize=auto;html=1;exitX=0.5;exitY=1;exitDx=0;exitDy=0;" parent="1" source="eqSFq4JWVnyqT5bBwnX6-1" target="eqSFq4JWVnyqT5bBwnX6-2" edge="1">
          <mxGeometry relative="1" as="geometry" />
        </mxCell>
        <mxCell id="eqSFq4JWVnyqT5bBwnX6-1" value="&lt;div&gt;&lt;span style=&quot;white-space-collapse: preserve;&quot;&gt;Achieve&lt;/span&gt;&lt;/div&gt;&lt;div&gt;&lt;span style=&quot;white-space-collapse: preserve;&quot;&gt;ments&lt;/span&gt;&lt;br&gt;&lt;/div&gt;&lt;div&gt;View&lt;br&gt;Model&lt;/div&gt;" style="rounded=0;whiteSpace=wrap;html=1;" parent="1" vertex="1">
          <mxGeometry x="510" y="840" width="50" height="60" as="geometry" />
        </mxCell>
        <mxCell id="eqSFq4JWVnyqT5bBwnX6-2" value="&lt;div&gt;&lt;span style=&quot;white-space-collapse: preserve;&quot;&gt;achieve&lt;/span&gt;&lt;/div&gt;&lt;div&gt;&lt;span style=&quot;white-space-collapse: preserve;&quot;&gt;ments&lt;/span&gt;&lt;br&gt;&lt;/div&gt;&lt;div&gt;Screen&lt;/div&gt;" style="rounded=0;whiteSpace=wrap;html=1;" parent="1" vertex="1">
          <mxGeometry x="500" y="930" width="70" height="100" as="geometry" />
        </mxCell>
        <mxCell id="eqSFq4JWVnyqT5bBwnX6-3" value="&lt;div&gt;&lt;span style=&quot;white-space-collapse: preserve;&quot; data-src-align=&quot;8:7&quot; class=&quot;EzKURWReUAB5oZgtQNkl&quot;&gt;Charts&lt;/span&gt;&lt;br&gt;&lt;/div&gt;&lt;div&gt;Screen&lt;/div&gt;" style="rounded=0;whiteSpace=wrap;html=1;" parent="1" vertex="1">
          <mxGeometry x="580" y="930" width="70" height="100" as="geometry" />
        </mxCell>
        <mxCell id="eqSFq4JWVnyqT5bBwnX6-4" value="&lt;div&gt;&lt;span style=&quot;white-space-collapse: preserve; background-color: initial;&quot;&gt;Add&lt;/span&gt;&lt;/div&gt;&lt;div&gt;&lt;span style=&quot;white-space-collapse: preserve; background-color: initial;&quot;&gt;Tasks&lt;/span&gt;&lt;/div&gt;&lt;div&gt;Screen&lt;/div&gt;" style="rounded=0;whiteSpace=wrap;html=1;" parent="1" vertex="1">
          <mxGeometry x="660" y="930" width="70" height="100" as="geometry" />
        </mxCell>
        <mxCell id="eqSFq4JWVnyqT5bBwnX6-5" value="&lt;div&gt;&lt;span style=&quot;white-space-collapse: preserve;&quot; data-src-align=&quot;0:7&quot; class=&quot;EzKURWReUAB5oZgtQNkl&quot;&gt;Profile&lt;/span&gt;&lt;br&gt;&lt;/div&gt;&lt;div&gt;Screen&lt;/div&gt;" style="rounded=0;whiteSpace=wrap;html=1;" parent="1" vertex="1">
          <mxGeometry x="740" y="930" width="70" height="100" as="geometry" />
        </mxCell>
        <mxCell id="eqSFq4JWVnyqT5bBwnX6-10" style="edgeStyle=orthogonalEdgeStyle;rounded=0;orthogonalLoop=1;jettySize=auto;html=1;exitX=0.5;exitY=1;exitDx=0;exitDy=0;" parent="1" source="eqSFq4JWVnyqT5bBwnX6-6" target="eqSFq4JWVnyqT5bBwnX6-3" edge="1">
          <mxGeometry relative="1" as="geometry" />
        </mxCell>
        <mxCell id="eqSFq4JWVnyqT5bBwnX6-6" value="&lt;div&gt;&lt;span style=&quot;white-space-collapse: preserve;&quot; data-src-align=&quot;8:7&quot; class=&quot;EzKURWReUAB5oZgtQNkl&quot;&gt;Charts&lt;/span&gt;&lt;br&gt;&lt;/div&gt;&lt;div&gt;View&lt;br&gt;Model&lt;/div&gt;" style="rounded=0;whiteSpace=wrap;html=1;" parent="1" vertex="1">
          <mxGeometry x="590" y="840" width="50" height="60" as="geometry" />
        </mxCell>
        <mxCell id="eqSFq4JWVnyqT5bBwnX6-11" style="edgeStyle=orthogonalEdgeStyle;rounded=0;orthogonalLoop=1;jettySize=auto;html=1;exitX=0.5;exitY=1;exitDx=0;exitDy=0;entryX=0.5;entryY=0;entryDx=0;entryDy=0;" parent="1" source="eqSFq4JWVnyqT5bBwnX6-7" target="eqSFq4JWVnyqT5bBwnX6-4" edge="1">
          <mxGeometry relative="1" as="geometry" />
        </mxCell>
        <mxCell id="eqSFq4JWVnyqT5bBwnX6-7" value="&lt;div&gt;&lt;span style=&quot;white-space-collapse: preserve;&quot; data-src-align=&quot;0:6&quot; class=&quot;EzKURWReUAB5oZgtQNkl&quot;&gt;Add&lt;/span&gt;&lt;/div&gt;&lt;div&gt;&lt;span style=&quot;white-space-collapse: preserve;&quot; data-src-align=&quot;0:6&quot; class=&quot;EzKURWReUAB5oZgtQNkl&quot;&gt;Task&lt;/span&gt;&lt;/div&gt;&lt;div&gt;View&lt;br&gt;Model&lt;/div&gt;" style="rounded=0;whiteSpace=wrap;html=1;" parent="1" vertex="1">
          <mxGeometry x="670" y="840" width="50" height="60" as="geometry" />
        </mxCell>
        <mxCell id="eqSFq4JWVnyqT5bBwnX6-12" style="edgeStyle=orthogonalEdgeStyle;rounded=0;orthogonalLoop=1;jettySize=auto;html=1;exitX=0.5;exitY=1;exitDx=0;exitDy=0;entryX=0.5;entryY=0;entryDx=0;entryDy=0;" parent="1" source="eqSFq4JWVnyqT5bBwnX6-8" target="eqSFq4JWVnyqT5bBwnX6-5" edge="1">
          <mxGeometry relative="1" as="geometry" />
        </mxCell>
        <mxCell id="eqSFq4JWVnyqT5bBwnX6-8" value="&lt;div&gt;&lt;span style=&quot;white-space-collapse: preserve;&quot; data-src-align=&quot;0:7&quot; class=&quot;EzKURWReUAB5oZgtQNkl&quot;&gt;Profile&lt;/span&gt;&lt;br&gt;&lt;/div&gt;&lt;div&gt;View&lt;br&gt;Model&lt;/div&gt;" style="rounded=0;whiteSpace=wrap;html=1;" parent="1" vertex="1">
          <mxGeometry x="750" y="840" width="50" height="60" as="geometry" />
        </mxCell>
        <mxCell id="eqSFq4JWVnyqT5bBwnX6-13" value="&lt;div&gt;&lt;span style=&quot;white-space-collapse: preserve;&quot; data-src-align=&quot;0:9&quot; class=&quot;EzKURWReUAB5oZgtQNkl&quot;&gt;Settings&lt;/span&gt;&lt;br&gt;&lt;/div&gt;&lt;div&gt;Screen&lt;/div&gt;" style="rounded=0;whiteSpace=wrap;html=1;" parent="1" vertex="1">
          <mxGeometry x="820" y="930" width="70" height="100" as="geometry" />
        </mxCell>
        <mxCell id="eqSFq4JWVnyqT5bBwnX6-15" style="edgeStyle=orthogonalEdgeStyle;rounded=0;orthogonalLoop=1;jettySize=auto;html=1;exitX=0.5;exitY=1;exitDx=0;exitDy=0;entryX=0.5;entryY=0;entryDx=0;entryDy=0;" parent="1" source="eqSFq4JWVnyqT5bBwnX6-14" target="eqSFq4JWVnyqT5bBwnX6-13" edge="1">
          <mxGeometry relative="1" as="geometry" />
        </mxCell>
        <mxCell id="eqSFq4JWVnyqT5bBwnX6-14" value="&lt;div&gt;&lt;span style=&quot;white-space-collapse: preserve;&quot; data-src-align=&quot;0:9&quot; class=&quot;EzKURWReUAB5oZgtQNkl&quot;&gt;Settings&lt;/span&gt;&lt;br&gt;&lt;/div&gt;&lt;div&gt;View&lt;br&gt;Model&lt;/div&gt;" style="rounded=0;whiteSpace=wrap;html=1;" parent="1" vertex="1">
          <mxGeometry x="830" y="840" width="50" height="60" as="geometry" />
        </mxCell>
        <mxCell id="eqSFq4JWVnyqT5bBwnX6-16" value="AddTaskUseCase" style="ellipse;whiteSpace=wrap;html=1;" parent="1" vertex="1">
          <mxGeometry x="635" y="660" width="120" height="80" as="geometry" />
        </mxCell>
        <mxCell id="eqSFq4JWVnyqT5bBwnX6-18" style="edgeStyle=orthogonalEdgeStyle;rounded=0;orthogonalLoop=1;jettySize=auto;html=1;exitX=1;exitY=0.5;exitDx=0;exitDy=0;entryX=0.5;entryY=0;entryDx=0;entryDy=0;" parent="1" source="tZ8Ya-4mFZi0hfj2rR8u-24" target="eqSFq4JWVnyqT5bBwnX6-16" edge="1">
          <mxGeometry relative="1" as="geometry" />
        </mxCell>
        <mxCell id="eqSFq4JWVnyqT5bBwnX6-19" value="deleteTask&lt;div&gt;UseCase&lt;/div&gt;" style="ellipse;whiteSpace=wrap;html=1;" parent="1" vertex="1">
          <mxGeometry x="440" y="660" width="120" height="80" as="geometry" />
        </mxCell>
        <mxCell id="eqSFq4JWVnyqT5bBwnX6-22" value="" style="endArrow=classic;html=1;rounded=0;entryX=1;entryY=0;entryDx=0;entryDy=0;exitX=0.5;exitY=1;exitDx=0;exitDy=0;" parent="1" source="eqSFq4JWVnyqT5bBwnX6-19" target="tZ8Ya-4mFZi0hfj2rR8u-4" edge="1">
          <mxGeometry width="50" height="50" relative="1" as="geometry">
            <mxPoint x="505" y="740" as="sourcePoint" />
            <mxPoint x="555" y="860" as="targetPoint" />
          </mxGeometry>
        </mxCell>
        <mxCell id="eqSFq4JWVnyqT5bBwnX6-23" value="" style="endArrow=classic;html=1;rounded=0;exitX=0.5;exitY=1;exitDx=0;exitDy=0;entryX=0.5;entryY=0;entryDx=0;entryDy=0;" parent="1" source="eqSFq4JWVnyqT5bBwnX6-16" target="eqSFq4JWVnyqT5bBwnX6-7" edge="1">
          <mxGeometry width="50" height="50" relative="1" as="geometry">
            <mxPoint x="690" y="740" as="sourcePoint" />
            <mxPoint x="740" y="860" as="targetPoint" />
          </mxGeometry>
        </mxCell>
        <mxCell id="h_j9IHKlXpUu8wgHreK--14" style="edgeStyle=orthogonalEdgeStyle;rounded=0;orthogonalLoop=1;jettySize=auto;html=1;exitX=0.5;exitY=0;exitDx=0;exitDy=0;" edge="1" parent="1" source="h_j9IHKlXpUu8wgHreK--3" target="h_j9IHKlXpUu8wgHreK--9">
          <mxGeometry relative="1" as="geometry" />
        </mxCell>
        <mxCell id="h_j9IHKlXpUu8wgHreK--3" value="TaskRepositoryImpl" style="rounded=1;whiteSpace=wrap;html=1;" vertex="1" parent="1">
          <mxGeometry x="220" y="210" width="140" height="60" as="geometry" />
        </mxCell>
        <mxCell id="h_j9IHKlXpUu8wgHreK--15" style="edgeStyle=orthogonalEdgeStyle;rounded=0;orthogonalLoop=1;jettySize=auto;html=1;" edge="1" parent="1" source="h_j9IHKlXpUu8wgHreK--5" target="h_j9IHKlXpUu8wgHreK--11">
          <mxGeometry relative="1" as="geometry" />
        </mxCell>
        <mxCell id="h_j9IHKlXpUu8wgHreK--5" value="&lt;div&gt;Achievement&lt;/div&gt;&lt;div&gt;R&lt;span style=&quot;background-color: initial;&quot;&gt;epositoryImpl&lt;/span&gt;&lt;/div&gt;" style="rounded=1;whiteSpace=wrap;html=1;" vertex="1" parent="1">
          <mxGeometry x="390" y="210" width="120" height="60" as="geometry" />
        </mxCell>
        <mxCell id="h_j9IHKlXpUu8wgHreK--16" style="edgeStyle=orthogonalEdgeStyle;rounded=0;orthogonalLoop=1;jettySize=auto;html=1;exitX=0.5;exitY=0;exitDx=0;exitDy=0;" edge="1" parent="1" source="h_j9IHKlXpUu8wgHreK--6" target="h_j9IHKlXpUu8wgHreK--12">
          <mxGeometry relative="1" as="geometry" />
        </mxCell>
        <mxCell id="h_j9IHKlXpUu8wgHreK--6" value="PointRepositoryImpl" style="rounded=1;whiteSpace=wrap;html=1;" vertex="1" parent="1">
          <mxGeometry x="540" y="210" width="120" height="60" as="geometry" />
        </mxCell>
        <mxCell id="h_j9IHKlXpUu8wgHreK--23" style="edgeStyle=orthogonalEdgeStyle;rounded=0;orthogonalLoop=1;jettySize=auto;html=1;exitX=0.5;exitY=0;exitDx=0;exitDy=0;" edge="1" parent="1" source="h_j9IHKlXpUu8wgHreK--7" target="tZ8Ya-4mFZi0hfj2rR8u-30">
          <mxGeometry relative="1" as="geometry" />
        </mxCell>
        <mxCell id="h_j9IHKlXpUu8wgHreK--7" value="UserRepositoryImpl" style="rounded=1;whiteSpace=wrap;html=1;" vertex="1" parent="1">
          <mxGeometry x="720" y="210" width="120" height="60" as="geometry" />
        </mxCell>
        <mxCell id="h_j9IHKlXpUu8wgHreK--8" value="RoomDatabase" style="rounded=1;whiteSpace=wrap;html=1;" vertex="1" parent="1">
          <mxGeometry x="220" y="-60" width="120" height="60" as="geometry" />
        </mxCell>
        <mxCell id="h_j9IHKlXpUu8wgHreK--17" style="edgeStyle=orthogonalEdgeStyle;rounded=0;orthogonalLoop=1;jettySize=auto;html=1;exitX=0.5;exitY=0;exitDx=0;exitDy=0;" edge="1" parent="1" source="h_j9IHKlXpUu8wgHreK--9" target="h_j9IHKlXpUu8wgHreK--8">
          <mxGeometry relative="1" as="geometry" />
        </mxCell>
        <mxCell id="h_j9IHKlXpUu8wgHreK--9" value="TaskDao" style="rounded=1;whiteSpace=wrap;html=1;" vertex="1" parent="1">
          <mxGeometry x="220" y="60" width="120" height="60" as="geometry" />
        </mxCell>
        <mxCell id="h_j9IHKlXpUu8wgHreK--18" style="edgeStyle=orthogonalEdgeStyle;rounded=0;orthogonalLoop=1;jettySize=auto;html=1;exitX=0.5;exitY=0;exitDx=0;exitDy=0;entryX=1;entryY=0.5;entryDx=0;entryDy=0;" edge="1" parent="1" source="h_j9IHKlXpUu8wgHreK--11" target="h_j9IHKlXpUu8wgHreK--8">
          <mxGeometry relative="1" as="geometry" />
        </mxCell>
        <mxCell id="h_j9IHKlXpUu8wgHreK--11" value="AchievmentDao" style="rounded=1;whiteSpace=wrap;html=1;" vertex="1" parent="1">
          <mxGeometry x="370" y="60" width="120" height="60" as="geometry" />
        </mxCell>
        <mxCell id="h_j9IHKlXpUu8wgHreK--19" style="edgeStyle=orthogonalEdgeStyle;rounded=0;orthogonalLoop=1;jettySize=auto;html=1;exitX=0.5;exitY=0;exitDx=0;exitDy=0;entryX=1;entryY=0.25;entryDx=0;entryDy=0;" edge="1" parent="1" source="h_j9IHKlXpUu8wgHreK--12" target="h_j9IHKlXpUu8wgHreK--8">
          <mxGeometry relative="1" as="geometry" />
        </mxCell>
        <mxCell id="h_j9IHKlXpUu8wgHreK--12" value="PointDao" style="rounded=1;whiteSpace=wrap;html=1;" vertex="1" parent="1">
          <mxGeometry x="520" y="60" width="120" height="60" as="geometry" />
        </mxCell>
        <mxCell id="h_j9IHKlXpUu8wgHreK--20" value="TaskEntity" style="rounded=1;whiteSpace=wrap;html=1;" vertex="1" parent="1">
          <mxGeometry x="650" y="-120" width="120" height="60" as="geometry" />
        </mxCell>
        <mxCell id="h_j9IHKlXpUu8wgHreK--21" value="AchievmentEntity" style="rounded=1;whiteSpace=wrap;html=1;" vertex="1" parent="1">
          <mxGeometry x="650" y="-40" width="120" height="60" as="geometry" />
        </mxCell>
        <mxCell id="h_j9IHKlXpUu8wgHreK--22" value="PointEntity" style="rounded=1;whiteSpace=wrap;html=1;" vertex="1" parent="1">
          <mxGeometry x="650" y="40" width="120" height="60" as="geometry" />
        </mxCell>
        <mxCell id="h_j9IHKlXpUu8wgHreK--25" value="&lt;div&gt;Achievement&lt;/div&gt;&lt;div&gt;R&lt;span style=&quot;background-color: initial;&quot;&gt;epositoryImpl&lt;/span&gt;&lt;/div&gt;" style="rounded=1;whiteSpace=wrap;html=1;" vertex="1" parent="1">
          <mxGeometry x="570" y="490" width="120" height="60" as="geometry" />
        </mxCell>
        <mxCell id="h_j9IHKlXpUu8wgHreK--27" value="PointRepositoryImpl" style="rounded=1;whiteSpace=wrap;html=1;" vertex="1" parent="1">
          <mxGeometry x="700" y="480" width="120" height="60" as="geometry" />
        </mxCell>
        <mxCell id="h_j9IHKlXpUu8wgHreK--28" value="UserRepositoryImpl" style="rounded=1;whiteSpace=wrap;html=1;" vertex="1" parent="1">
          <mxGeometry x="857.5" y="480" width="120" height="60" as="geometry" />
        </mxCell>
      </root>
    </mxGraphModel>
  </diagram>
</mxfile>
